<svg width="361" height="69" viewBox="0 0 361 69" fill="none" xmlns="http://www.w3.org/2000/svg">
<path d="M6.08 5.896H15.36V53H6.08V5.896ZM35.8375 35.592C35.8375 37.0853 36.2855 38.5147 37.1815 39.88C38.0775 41.2453 39.2508 42.3547 40.7015 43.208C42.1948 44.0613 43.8162 44.488 45.5655 44.488C47.4855 44.488 49.1922 44.0613 50.6855 43.208C52.1788 42.3547 53.3522 41.2453 54.2055 39.88C55.1015 38.5147 55.5495 37.0853 55.5495 35.592V5.896H64.7015V35.784C64.7015 39.24 63.8482 42.312 62.1415 45C60.4348 47.6453 58.1308 49.736 55.2295 51.272C52.3282 52.7653 49.1068 53.512 45.5655 53.512C42.0668 53.512 38.8668 52.7653 35.9655 51.272C33.1068 49.736 30.8242 47.6453 29.1175 45C27.4108 42.312 26.5575 39.24 26.5575 35.784V5.896H35.8375V35.592ZM90.1645 5.896C96.0952 5.896 100.639 7.34666 103.797 10.248C106.997 13.1067 108.597 16.9467 108.597 21.768C108.597 24.456 108.021 27.1013 106.869 29.704C105.759 32.3067 103.861 34.376 101.173 35.912L112.117 53H101.301L91.3805 38.024H85.1725V53H75.8925V5.896H90.1645ZM91.7645 29.064C93.6418 29.064 95.0925 28.68 96.1165 27.912C97.1832 27.1013 97.9298 26.1627 98.3565 25.096C98.7832 23.9867 98.9965 22.984 98.9965 22.088C98.9965 21.576 98.9112 20.936 98.7405 20.168C98.6125 19.3573 98.3138 18.5467 97.8445 17.736C97.3752 16.9253 96.6498 16.2427 95.6685 15.688C94.7298 15.1333 93.4498 14.856 91.8285 14.856H85.1725V29.064H91.7645ZM119.768 5.896H129.048V53H119.768V5.896ZM176.533 49.096C176.021 49.5227 175.061 50.0987 173.653 50.824C172.288 51.5493 170.602 52.1893 168.597 52.744C166.592 53.2987 164.373 53.5547 161.941 53.512C158.229 53.4267 154.901 52.7653 151.957 51.528C149.056 50.248 146.581 48.52 144.533 46.344C142.528 44.168 140.992 41.672 139.925 38.856C138.858 36.04 138.325 33.032 138.325 29.832C138.325 25.0533 139.285 20.8293 141.205 17.16C143.125 13.4907 145.792 10.6107 149.205 8.52C152.661 6.42933 156.672 5.384 161.237 5.384C164.394 5.384 167.189 5.81067 169.621 6.664C172.053 7.51733 174.037 8.43466 175.573 9.416L171.925 18.184C170.858 17.3733 169.429 16.5413 167.637 15.688C165.888 14.792 163.861 14.344 161.557 14.344C159.168 14.344 156.928 15.0053 154.837 16.328C152.789 17.6507 151.125 19.4427 149.845 21.704C148.608 23.9227 147.989 26.4613 147.989 29.32C147.989 32.3493 148.565 35.016 149.717 37.32C150.869 39.5813 152.512 41.352 154.645 42.632C156.778 43.912 159.274 44.552 162.133 44.552C164.65 44.552 166.805 44.1467 168.597 43.336C170.389 42.5253 171.754 41.672 172.693 40.776L176.533 49.096ZM182.95 29.512C182.95 26.2693 183.569 23.1973 184.806 20.296C186.043 17.3947 187.75 14.8347 189.926 12.616C192.145 10.3547 194.705 8.584 197.606 7.304C200.507 6.024 203.622 5.384 206.95 5.384C210.235 5.384 213.329 6.024 216.23 7.304C219.131 8.584 221.691 10.3547 223.91 12.616C226.171 14.8347 227.921 17.3947 229.158 20.296C230.438 23.1973 231.078 26.2693 231.078 29.512C231.078 32.84 230.438 35.9547 229.158 38.856C227.921 41.7573 226.171 44.3173 223.91 46.536C221.691 48.712 219.131 50.4187 216.23 51.656C213.329 52.8933 210.235 53.512 206.95 53.512C203.622 53.512 200.507 52.8933 197.606 51.656C194.705 50.4187 192.145 48.712 189.926 46.536C187.75 44.3173 186.043 41.7573 184.806 38.856C183.569 35.9547 182.95 32.84 182.95 29.512ZM192.55 29.512C192.55 32.2853 193.19 34.824 194.47 37.128C195.793 39.3893 197.563 41.2027 199.782 42.568C202.001 43.8907 204.497 44.552 207.27 44.552C209.958 44.552 212.369 43.8907 214.502 42.568C216.678 41.2027 218.385 39.3893 219.622 37.128C220.859 34.824 221.478 32.2853 221.478 29.512C221.478 26.6533 220.838 24.0933 219.558 21.832C218.278 19.528 216.55 17.7147 214.374 16.392C212.198 15.0267 209.745 14.344 207.014 14.344C204.283 14.344 201.83 15.0267 199.654 16.392C197.478 17.7147 195.75 19.528 194.47 21.832C193.19 24.0933 192.55 26.6533 192.55 29.512ZM323.58 5.896H355.708V14.856H332.86V24.904H353.084V33.864H332.86V44.04H356.604V53H323.58V5.896Z" fill="#F9F9F9"/>
<path d="M262.096 8.104C261.2 8.104 260.496 8.232 259.984 8.488C259.515 8.744 259.173 9.32 258.96 10.216C258.789 11.112 258.704 12.5413 258.704 14.504V20.776C258.704 22.3973 258.448 23.8053 257.936 25C257.467 26.152 256.912 27.0907 256.272 27.816C255.632 28.5413 255.035 29.096 254.48 29.48C254.949 29.8213 255.504 30.3547 256.144 31.08C256.827 31.7627 257.424 32.616 257.936 33.64C258.448 34.6213 258.704 35.7307 258.704 36.968V44.648C258.704 46.568 258.789 47.976 258.96 48.872C259.173 49.768 259.515 50.344 259.984 50.6C260.496 50.856 261.2 50.984 262.096 50.984H264.464V58.792H259.408C258.213 58.792 257.019 58.7707 255.824 58.728C254.672 58.6853 253.605 58.4507 252.624 58.024C251.643 57.64 250.853 56.8933 250.256 55.784C249.701 54.7173 249.424 53.16 249.424 51.112V40.552C249.424 38.632 248.997 36.9253 248.144 35.432C247.291 33.896 245.989 33.1067 244.24 33.064V25.64C245.989 25.5973 247.291 24.8293 248.144 23.336C248.997 21.8427 249.424 20.1147 249.424 18.152V8.04C249.424 5.992 249.701 4.43466 250.256 3.368C250.811 2.30133 251.557 1.55466 252.496 1.128C253.477 0.701332 254.565 0.466665 255.76 0.423996C256.955 0.338664 258.171 0.295998 259.408 0.295998H264.464V8.104H262.096ZM309.812 30.056C309.812 34.408 309.279 38.4827 308.212 42.28C307.188 46.0773 305.865 49.448 304.244 52.392C302.623 55.3787 300.895 57.832 299.06 59.752L291.7 56.36C294.217 53.4587 296.308 49.832 297.972 45.48C299.636 41.0853 300.468 35.944 300.468 30.056C300.468 24.168 299.636 19.048 297.972 14.696C296.308 10.3013 294.217 6.67466 291.7 3.816L299.06 0.359997C300.895 2.28 302.623 4.73333 304.244 7.72C305.865 10.7067 307.188 14.0987 308.212 17.896C309.279 21.6507 309.812 25.704 309.812 30.056Z" fill="#6100FF"/>
</svg>
